<svg width="211" height="204" viewBox="0 0 211 204" fill="none" xmlns="http://www.w3.org/2000/svg">
<path d="M50.9876 197.458C57.787 193.599 64.6822 189.739 71.4817 186.073C73.5885 184.626 75.8869 183.662 78.2811 183.083C80.2922 182.697 82.2075 183.083 83.9313 184.047C85.6551 185.109 86.9001 186.556 87.5705 188.485C88.4324 190.318 88.6239 192.248 88.1451 194.274C87.6662 196.3 86.517 197.843 84.889 199.001C81.6329 201.702 78.0896 204.018 74.4504 206.044C62.3838 212.701 49.4553 217.139 35.8564 219.165C26.8544 220.515 23.6941 217.139 26.0882 208.456C28.2909 200.255 30.3977 192.055 32.8877 183.951C34.1326 180.671 33.4623 177.776 30.8766 175.365C5.68994 146.325 -4.36556 112.752 3.67884 74.7402C9.52061 47.4375 26.5671 28.4317 50.0299 14.5392C94.3699 -11.4129 153.362 -4.46658 189.658 31.133C225.953 66.6362 226.145 124.136 189.945 157.517C168.589 177.294 142.828 183.469 114.768 178.548C83.644 173.242 59.7024 156.938 47.0611 126.837C39.4956 108.796 37.7718 89.8869 47.0611 71.6529C59.2235 48.0163 85.5594 40.2983 106.532 54.9626C108.065 55.8309 109.693 55.9274 111.321 55.1556C136.411 36.6322 168.589 53.9978 175.389 83.2301C176.825 89.0186 177.208 94.9036 176.442 100.885C175.676 106.867 173.952 112.462 171.175 117.672C168.398 122.978 164.758 127.512 160.257 131.468C155.756 135.424 150.681 138.318 145.126 140.44C143.211 141.212 141.296 141.791 139.285 142.08C137.082 142.563 134.879 142.273 132.868 141.116C130.857 139.958 129.421 138.318 128.654 136.195C127.888 133.976 127.888 131.854 128.846 129.731C129.708 127.609 131.24 126.065 133.251 125.004C137.848 122.399 142.253 119.602 146.467 116.418C149.627 113.909 152.117 110.822 154.033 107.253C155.948 103.683 157.001 99.8239 157.289 95.8684C157.576 91.9129 157.097 87.8609 155.852 84.0983C154.607 80.3358 152.596 76.8626 149.819 73.8719C141.774 64.8031 131.144 63.4525 121.28 70.4952C118.886 72.3283 116.588 74.3543 114.385 76.4767C113.715 77.2485 112.949 77.9239 111.991 78.4063C111.033 78.8886 110.076 79.0816 109.022 79.1781C107.969 79.1781 107.011 78.9851 106.053 78.5992C105.096 78.2133 104.234 77.6345 103.564 76.8626C101.169 74.7402 98.5836 72.8106 95.9979 70.8811C85.4636 63.0666 74.0674 64.8996 66.6933 75.8979C56.6378 90.8517 58.0743 106.577 65.3526 121.917C77.9938 148.448 100.595 160.507 128.846 161.761C151.351 162.726 170.696 154.333 184.391 135.809C189.083 129.442 192.627 122.399 194.925 114.778C197.223 107.156 198.181 99.3415 197.798 91.4305C197.415 83.5195 195.691 75.8014 192.722 68.4692C189.754 61.1371 185.54 54.4802 180.273 48.5952C143.019 6.24225 70.1409 7.5929 35.1861 51.5859C17.7565 73.6789 16.4158 98.8592 24.1729 125.004C28.6739 141.116 37.1014 154.815 49.3595 166.103C51.6579 167.839 53.0945 170.155 53.8606 172.953C54.6267 175.751 54.4352 178.452 53.3817 181.153C51.8495 185.88 50.796 190.801 49.4553 195.721L50.9876 197.458Z" fill="#DB4A2B" fill-opacity="0.12"/>
</svg>
