<svg width="20" height="19" viewBox="0 0 20 19" fill="none" xmlns="http://www.w3.org/2000/svg">
<path d="M4.38607 11.2995H11.7671V9.45428H4.38607V11.2995ZM4.38607 8.53166H15.4576V6.6864H4.38607V8.53166ZM4.38607 5.76377H15.4576V3.91851H4.38607V5.76377ZM9.92185 18.6806L7.45382 14.9901H2.54082C2.03337 14.9901 1.59896 14.8094 1.2376 14.448C0.876238 14.0867 0.695557 13.6522 0.695557 13.1448V2.07325C0.695557 1.5658 0.876238 1.1314 1.2376 0.770034C1.59896 0.408671 2.03337 0.227989 2.54082 0.227989H17.3029C17.8103 0.227989 18.2447 0.408671 18.6061 0.770034C18.9675 1.1314 19.1481 1.5658 19.1481 2.07325V13.1448C19.1481 13.6522 18.9675 14.0867 18.6061 14.448C18.2447 14.8094 17.8103 14.9901 17.3029 14.9901H12.3899L9.92185 18.6806Z" fill="url(#paint0_linear_31_2361)"/>
<defs>
<linearGradient id="paint0_linear_31_2361" x1="9.92185" y1="0.227989" x2="9.92185" y2="18.6806" gradientUnits="userSpaceOnUse">
<stop stop-color="#1673FF"/>
<stop offset="1" stop-color="#0D4599"/>
</linearGradient>
</defs>
</svg>
