<svg width="27" height="27" viewBox="0 0 27 27" fill="none" xmlns="http://www.w3.org/2000/svg">
<path d="M11.5149 20.1148L10.1771 18.9154C8.62396 17.5161 7.33997 16.3089 6.32508 15.2941C5.31019 14.2792 4.50289 13.3681 3.90318 12.5608C3.30347 11.7535 2.88444 11.0115 2.64609 10.3349C2.40775 9.65832 2.28857 8.96635 2.28857 8.259C2.28857 6.81355 2.77295 5.60644 3.74172 4.63768C4.71048 3.66892 5.91758 3.18454 7.36304 3.18454C8.16265 3.18454 8.92382 3.35369 9.64654 3.69199C10.3693 4.03028 10.992 4.50698 11.5149 5.12206C12.0377 4.50698 12.6605 4.03028 13.3832 3.69199C14.1059 3.35369 14.8671 3.18454 15.6667 3.18454C17.1122 3.18454 18.3193 3.66892 19.288 4.63768C20.2568 5.60644 20.7412 6.81355 20.7412 8.259C20.7412 8.96635 20.622 9.65832 20.3836 10.3349C20.1453 11.0115 19.7263 11.7535 19.1266 12.5608C18.5269 13.3681 17.7196 14.2792 16.7047 15.2941C15.6898 16.3089 14.4058 17.5161 12.8527 18.9154L11.5149 20.1148Z" fill="url(#paint0_linear_31_2358)"/>
<defs>
<linearGradient id="paint0_linear_31_2358" x1="11.5149" y1="3.18454" x2="11.5149" y2="20.1148" gradientUnits="userSpaceOnUse">
<stop stop-color="#FF0000"/>
<stop offset="1" stop-color="#990000"/>
</linearGradient>
</defs>
</svg>
