<svg width="274" height="62" viewBox="0 0 274 62" fill="none" xmlns="http://www.w3.org/2000/svg">
<g clip-path="url(#clip0_1_10)">
<path d="M131.463 11.1719C129.66 18.1403 126.287 30.2646 121.352 47.4305C119.88 52.6216 118.836 56.317 118.22 58.4726C118.176 58.7102 118.033 58.8949 117.837 59.0357C117.596 59.2205 117.408 59.3173 117.176 59.3173C116.935 59.3173 116.748 59.2205 116.659 59.0357C116.516 58.8949 116.516 58.7102 116.56 58.4726C117.176 56.273 118.22 52.5776 119.693 47.3865C121.022 42.8465 122.584 37.4178 124.342 31.1972C126.1 24.9767 127.661 19.1257 129.134 13.697C130.562 8.26836 131.463 4.47621 131.793 2.37336C131.177 3.16523 130.365 4.24744 129.375 5.64641C128.375 7.05417 127.385 8.49712 126.385 10.0017C124.824 12.3861 123.012 15.008 121.067 17.8147C119.077 20.6654 116.935 23.4722 114.704 26.2349C112.473 28.9976 110.1 31.5668 107.681 33.8632C105.21 36.2036 102.702 38.0777 100.186 39.4766C97.6691 40.8756 95.1526 41.5795 92.6362 41.5795C90.8336 41.5795 89.6022 41.0164 88.9864 39.899C88.3261 38.8255 88.0405 37.3738 88.1298 35.5965C88.2279 33.8192 88.5581 31.9011 89.0757 29.8423C89.5932 27.8274 90.1197 25.8214 90.7355 23.9033C90.8782 23.481 90.9764 23.0586 91.1192 22.6363C92.0205 19.8296 92.779 17.1109 93.4482 14.4977C94.064 11.8757 94.3941 9.58813 94.3941 7.57328C94.3495 5.55842 93.7784 4.10667 92.6362 3.17403C90.5927 1.63429 86.4164 2.1446 80.1074 4.81055C75.4136 6.8694 71.3266 9.43856 67.9088 12.4828C64.4464 15.5271 61.7872 18.6154 59.8865 21.7037C57.9411 24.8359 56.9417 27.5019 56.8524 29.7015C56.8078 32.7458 58.3695 34.2415 61.6444 34.2415C61.8854 34.2415 62.0281 34.3383 62.162 34.4791C62.3048 34.6199 62.3048 34.8574 62.2602 35.0862C62.2155 35.3237 62.0728 35.5085 61.8764 35.6493C61.6355 35.8341 61.4035 35.9308 61.1625 35.9308C59.1726 35.9308 57.6466 35.4205 56.6115 34.3911C55.5228 33.4057 55.0499 31.9627 55.0945 30.0886C55.4247 25.9269 57.843 21.2022 62.4029 15.9582C66.9629 10.7143 72.7633 6.49986 79.7862 3.3148C86.7644 0.367307 91.4583 -0.151805 93.9301 1.77507C95.3044 2.90127 96.0182 4.5378 96.1164 6.68463C96.161 8.84026 95.8755 11.3126 95.2151 14.0754C94.5012 16.8821 93.7427 19.7328 92.8414 22.6803C92.6987 23.1906 92.5113 23.7097 92.3239 24.2728C91.8063 25.9533 91.3244 27.6866 90.8515 29.5167C90.3339 31.338 90.0483 33.0273 89.9056 34.5671C89.7628 36.1596 89.9056 37.4706 90.3785 38.4472C90.8068 39.4326 91.7081 39.943 93.0824 39.943C95.4114 39.943 97.7316 39.2391 100.105 37.8841C102.434 36.5291 104.754 34.6991 107.084 32.4554C109.413 30.2558 111.635 27.7746 113.776 25.0647C115.909 22.3987 117.953 19.68 119.853 16.9701C121.754 14.2601 123.458 11.7262 125.029 9.38577C127.304 5.97195 129.018 3.58756 130.107 2.1798C131.177 0.789634 132.079 0.0857544 132.846 0.0857544C133.087 0.0857544 133.319 0.182538 133.462 0.367306C133.89 0.596067 133.221 4.20345 131.463 11.1719Z" fill="#F1E2DE"/>
<path d="M133.837 40.7436C132.605 40.7436 131.748 40.1365 131.275 38.9663C130.945 37.7961 131.133 36.6259 131.891 35.4117C131.793 34.9454 131.847 34.4791 132.034 34.0568C132.364 33.3529 132.891 32.7458 133.596 32.2795C134.31 31.8571 135.068 31.6284 135.925 31.6284C137.442 31.6284 138.486 32.0947 139.012 33.0273C139.539 33.96 139.673 35.0422 139.396 36.2564C141.912 36.2124 144.714 35.9748 147.749 35.4645C150.783 34.9542 153.442 34.2503 155.717 33.3617C155.958 33.2649 156.146 33.2649 156.378 33.3177C156.565 33.3617 156.663 33.5025 156.708 33.74C156.752 33.9776 156.708 34.1623 156.565 34.3471C156.422 34.5847 156.28 34.7254 156.047 34.8574C153.629 35.8429 150.783 36.5907 147.606 37.101C144.429 37.6114 141.484 37.8929 138.78 37.8929H138.682C138.352 38.456 137.968 38.9663 137.451 39.3886C136.353 40.2773 135.166 40.7436 133.837 40.7436ZM132.935 36.8107C132.793 37.277 132.793 37.6993 132.935 38.1217C133.176 38.7728 133.649 39.1071 134.31 39.1071C135.113 39.1071 135.871 38.8255 136.496 38.3152C136.639 38.1745 136.781 37.9897 136.924 37.8489C135.925 37.8049 135.077 37.6641 134.408 37.4706C133.792 37.2858 133.319 37.0483 132.935 36.8107ZM133.738 34.9454C133.979 35.3677 134.497 35.6493 135.255 35.878C135.871 36.0188 136.683 36.1596 137.674 36.2036C137.861 35.4557 137.817 34.7958 137.486 34.1887C137.156 33.5816 136.487 33.3001 135.496 33.3001C135.023 33.3001 134.64 33.3969 134.31 33.5816C133.979 33.7664 133.738 34.004 133.649 34.2327C133.605 34.4175 133.605 34.6111 133.649 34.743L133.738 34.9454Z" fill="#F1E2DE"/>
<path d="M168.862 32.2795C169.147 31.9539 169.433 31.7164 169.62 31.6724C169.861 31.6284 170.049 31.6284 170.236 31.7692C170.379 31.8659 170.423 32.0067 170.477 32.1475C170.477 32.2443 170.477 32.385 170.477 32.473L170.379 32.7986C170.093 33.6872 169.906 34.6199 169.808 35.5085C169.71 36.3972 169.906 37.1978 170.423 37.8489C170.941 38.5 171.985 38.8783 173.556 39.0191C175.599 39.0631 177.732 38.5088 180.061 37.2858C182.39 36.1156 184.478 34.8046 186.325 33.4497C186.566 33.3089 186.754 33.2649 186.995 33.2649C187.236 33.3089 187.369 33.4057 187.512 33.5464C187.61 33.7312 187.61 33.9248 187.557 34.1535C187.459 34.3911 187.316 34.5759 187.084 34.7167C185.04 36.1684 182.863 37.5234 180.534 38.7376C178.16 40.0045 175.84 40.6556 173.609 40.6996C173.368 40.6996 173.181 40.6996 172.993 40.6556C170.905 40.4709 169.531 39.9078 168.915 38.9751C168.255 38.0865 167.969 37.057 168.112 35.8868C168.112 35.6053 168.157 35.3765 168.157 35.139C167.157 36.1684 166.167 37.0131 165.212 37.6641C163.597 38.8343 162.178 39.6262 160.893 40.0485C159.608 40.4709 158.617 40.7084 157.805 40.7084C157.565 40.7084 157.332 40.7084 157.092 40.6644C154.486 40.2421 154.102 37.4794 155.86 32.429C155.958 32.1915 156.101 31.9627 156.333 31.8219C156.52 31.6812 156.717 31.6372 156.949 31.6812C157.19 31.6812 157.377 31.778 157.466 31.9187C157.565 32.1035 157.565 32.3411 157.511 32.5786C156.993 34.0744 156.654 35.2446 156.565 36.0892C156.467 36.9779 156.52 37.585 156.663 38.0073C156.806 38.4296 156.993 38.7112 157.234 38.8519C157.475 38.9927 157.663 39.0367 157.85 39.0367C158.466 39.2743 159.795 38.8959 161.839 38.0073C163.829 37.145 166.149 35.227 168.862 32.2795Z" fill="#F1E2DE"/>
<path d="M185.558 49.7269C184.844 49.7269 184.273 49.6301 183.854 49.4013C183.05 48.979 182.765 48.3279 182.908 47.4393C183.282 45.4772 185.942 42.996 190.876 40.0485C190.359 39.679 189.788 39.2567 189.074 38.7816C188.36 38.3592 187.7 37.8489 186.986 37.3298C186.084 36.5819 185.701 35.8341 185.799 35.0862C185.843 34.3823 186.084 33.7752 186.468 33.3529C187.655 31.8131 189.502 30.5022 191.974 29.5167C194.446 28.5313 196.48 28.2058 198.14 28.4433C199.514 28.7689 200.041 29.5695 199.702 30.9245C199.657 31.1621 199.514 31.3468 199.318 31.4876C199.077 31.6284 198.845 31.7252 198.604 31.7252C198.363 31.7252 198.221 31.6284 198.131 31.4876C197.989 31.3468 197.944 31.1621 197.989 30.9245C198.033 30.7397 198.033 30.5462 197.989 30.4142C197.944 30.2734 197.703 30.1326 197.373 30.0359C196.088 29.8951 194.383 30.2206 192.34 31.0213C190.252 31.8131 188.735 32.7986 187.833 33.9688C187.646 34.2063 187.548 34.4791 187.548 34.8134C187.503 35.139 187.735 35.5173 188.262 35.9396C188.922 36.45 189.681 36.9691 190.493 37.5322C191.296 38.0425 192.01 38.5616 192.724 39.0719C196.043 37.4354 199.791 36.1244 203.923 35.095C208.054 34.0656 211.704 33.5553 214.979 33.5553C215.22 33.5553 215.407 33.652 215.55 33.7928C215.648 33.9336 215.648 34.1711 215.595 34.3999C215.55 34.6375 215.407 34.8222 215.211 34.963C214.97 35.1038 214.738 35.2006 214.497 35.2006C211.508 35.2006 208.135 35.6669 204.387 36.5555C200.594 37.4882 197.123 38.6584 193.991 40.1101C195.41 41.2803 196.034 42.5913 195.793 43.9903C195.552 45.1605 194.606 46.1899 192.991 47.1753C190.163 48.8382 187.7 49.6829 185.558 49.7269ZM192.161 41.0252C191.92 41.166 191.688 41.3067 191.448 41.4475C189.404 42.6617 187.941 43.6911 186.941 44.4918C185.942 45.3364 185.326 45.9875 185.04 46.4099C184.71 46.8762 184.567 47.1577 184.612 47.2985C184.567 47.3953 184.567 47.4833 184.612 47.5801C184.657 47.6768 184.755 47.7648 184.942 47.8616C185.513 48.1432 186.459 48.1432 187.789 47.8176C189.118 47.4921 190.635 46.8322 192.393 45.8556C193.393 45.2485 193.955 44.6414 194.098 44.0783C194.196 43.084 193.536 42.0986 192.161 41.0252Z" fill="#F1E2DE"/>
<path d="M219.396 40.7876H218.825C214.408 40.6468 212.516 39.1951 213.23 36.3444C213.373 35.6933 213.801 34.9894 214.417 34.2855C215.033 33.5816 215.934 32.9306 217.076 32.4114C218.165 31.9011 219.539 31.6636 221.154 31.6636C222.627 31.6636 223.483 32.0859 223.715 32.9745C223.858 33.5816 223.617 34.1887 223.001 34.7958C222.386 35.4029 221.44 35.8253 220.11 36.1068C218.736 36.4324 217.023 36.3884 214.988 36.0628L214.89 36.3444C214.649 37.4178 215.033 38.1657 216.032 38.544C216.978 38.9663 218.076 39.1511 219.307 39.1511C224.902 39.3359 231.265 37.5586 238.332 33.8632C238.573 33.7224 238.761 33.7224 238.993 33.7664C239.18 33.8104 239.323 33.9512 239.376 34.1447C239.421 34.3823 239.421 34.5671 239.332 34.7518C239.189 34.9894 239.046 35.1302 238.814 35.2622C231.925 38.9663 225.42 40.7876 219.396 40.7876ZM216.362 34.5231C218.968 34.8486 220.78 34.6639 221.681 34.0128C221.824 33.916 221.922 33.828 221.966 33.7752C222.011 33.7312 222.011 33.7312 222.011 33.6784C222.011 33.6344 221.913 33.5376 221.725 33.4409C221.538 33.3441 221.208 33.3001 220.726 33.3001C219.727 33.3001 218.879 33.3969 218.165 33.6256C217.451 33.8544 216.835 34.1975 216.362 34.5231Z" fill="#F1E2DE"/>
<path d="M242.883 40.7876C240.84 40.7876 239.466 40.2773 238.752 39.2479C237.752 37.9369 237.609 35.3677 238.368 31.4788C239.126 27.6427 240.599 21.8444 242.83 14.0314C243.544 11.4622 244.302 8.6467 245.159 5.55842C245.203 5.32086 245.346 5.13609 245.587 4.99532C245.775 4.85454 245.971 4.75776 246.203 4.75776C246.435 4.75776 246.578 4.85454 246.72 4.99532C246.863 5.13609 246.863 5.32086 246.819 5.55842C246.016 8.6467 245.203 11.4974 244.49 14.0754C242.446 21.2373 241.027 26.71 240.215 30.5462C239.412 34.4263 239.412 36.9075 240.26 38.0777C240.688 38.7816 241.732 39.1071 243.294 39.1071C244.766 39.1071 246.239 38.8255 247.711 38.2185C249.183 37.6114 250.558 36.9075 251.843 36.1156C253.128 35.3237 254.216 34.6199 255.216 33.96C255.501 33.7752 255.733 33.5904 255.974 33.3969C256.215 33.2561 256.447 33.2121 256.688 33.2121C256.876 33.2561 257.018 33.3529 257.161 33.5377C257.259 33.6784 257.259 33.8632 257.206 34.1008C257.108 34.3383 256.965 34.5231 256.733 34.6639C256.492 34.8486 256.215 35.0422 255.93 35.227C254.93 35.9308 253.699 36.7227 252.325 37.5674C250.906 38.456 249.38 39.2039 247.773 39.811C246.158 40.4621 244.543 40.7876 242.883 40.7876Z" fill="#F1E2DE"/>
<path d="M254.323 59.5548C253.467 59.5548 252.806 59.2293 252.333 58.5694C251.477 57.3024 251.245 55.0588 251.673 51.9265C252.057 48.7942 252.762 45.1869 253.806 41.0252C253.378 40.9284 252.905 40.8404 252.432 40.7436C252.244 40.6996 252.101 40.5589 252.057 40.4181C252.012 40.2773 252.012 40.0925 252.057 39.855C252.101 39.6702 252.244 39.4854 252.432 39.3447C252.574 39.2039 252.762 39.1599 253.003 39.1071C253.476 39.0631 253.904 39.0631 254.332 39.1071C255.046 36.3004 255.849 33.4497 256.661 30.5462C257.036 29.0944 257.42 27.7394 257.804 26.3845C257.848 26.1469 257.991 25.9621 258.232 25.8214C258.419 25.6806 258.616 25.5838 258.848 25.5838C259.089 25.5838 259.231 25.6806 259.365 25.8214C259.508 25.9621 259.508 26.1469 259.463 26.3845C259.089 27.7394 258.705 29.0944 258.321 30.5462C257.518 33.4937 256.706 36.4852 255.903 39.5294C255.948 39.5734 256.046 39.5734 256.09 39.5734C261.266 40.0397 266.816 38.1217 272.751 33.8632C272.992 33.7224 273.179 33.6256 273.411 33.6256C273.652 33.6696 273.795 33.7664 273.929 33.9072C274.027 34.092 274.027 34.2767 273.973 34.5143C273.929 34.7518 273.786 34.9366 273.545 35.0774C268.084 39.0103 262.961 41.0692 258.071 41.2979C258.455 41.8082 258.785 42.3713 259.071 43.0752C259.927 45.4156 260.213 48.0376 259.874 50.8883C259.544 53.739 258.732 56.0794 257.411 57.8127C256.456 58.9917 255.412 59.5548 254.323 59.5548ZM255.412 41.3507C254.466 45.1429 253.797 48.5127 253.422 51.4074C252.994 54.3549 253.137 56.317 253.85 57.3992C254.091 57.7247 254.368 57.9095 254.752 57.9095C254.895 57.9095 255.135 57.8655 255.367 57.7247C255.608 57.6279 255.84 57.3992 256.171 57.0736C257.17 55.7187 257.83 53.7038 258.161 51.1347C258.491 48.5655 258.205 46.2251 257.402 44.0255C257.072 42.9872 256.412 42.0986 255.412 41.3507Z" fill="#F1E2DE"/>
<path d="M4.47966 59.9419L4.36365 59.4756C4.39043 59.458 4.97938 59.1325 4.97938 58.3582V51.293C4.97938 50.9499 4.83661 50.8091 4.4172 50.5891H1.93643C1.72226 50.5891 1.02622 51.337 0.455105 52.1905L0 52.0057L0.481876 49.2518V49.0054L0.731738 48.9966H11.1367V49.243L11.6096 52.0057L11.1456 52.1817C10.5745 51.3282 9.88738 50.5803 9.67321 50.5803H7.20137C6.78196 50.8003 6.63918 50.9499 6.63918 51.2842V58.3494C6.63918 59.0885 7.23706 59.458 7.26383 59.4756L7.1389 59.9419H4.47966Z" fill="#F1E2DE"/>
<path d="M11.3687 52.0497C11.3687 52.0497 10.2265 50.334 9.68214 50.334H7.1389C6.67487 50.5715 6.38932 50.7739 6.38932 51.293V58.3582C6.38932 59.2645 7.1389 59.6956 7.1389 59.6956H4.47966C4.47966 59.6956 5.22925 59.3085 5.22925 58.3582V51.293C5.22925 50.7827 4.94369 50.5803 4.47966 50.3428H1.93643C1.39209 50.3428 0.249863 52.0497 0.249863 52.0497L0.731739 49.2958V49.243H10.8868V49.2958L11.3687 52.0497Z" fill="#F1E2DE"/>
<path d="M12.7519 59.9419L12.618 59.4756C12.6448 59.458 13.2427 59.0973 13.2427 58.3494V50.7035C13.2427 49.8677 12.6359 49.4629 12.6091 49.4453L12.7429 48.9878H19.6409C21.4702 48.9878 22.9605 50.4572 22.9605 52.2609C22.9605 54.003 21.8272 55.3403 20.2031 55.5955L21.729 57.5312C22.3805 58.367 23.2193 58.8685 23.9689 58.8685H24.2187V59.9419H23.9689C22.5411 59.9419 21.0598 59.2821 20.2834 58.2878L18.2131 55.6483H14.9025V58.3582C14.9025 59.0973 15.5003 59.4668 15.5271 59.4844L15.3933 59.9507H12.7519V59.9419ZM19.2215 54.0558C20.212 54.0558 21.1044 53.4838 21.2472 52.7536C21.3632 52.1817 21.2382 51.645 20.9081 51.2402C20.56 50.8267 20.0068 50.5803 19.391 50.5803H15.7502C15.304 50.5803 14.9292 50.9411 14.9292 51.3898V54.0558H19.2215Z" fill="#F1E2DE"/>
<path d="M23.9778 59.1237V59.6956C22.7196 59.6956 21.265 59.1237 20.4976 58.1383L18.347 55.4019H14.6615V58.3582C14.6615 59.2645 15.4111 59.6956 15.4111 59.6956H12.7519C12.7519 59.6956 13.5014 59.2557 13.5014 58.3582V50.7123C13.5014 49.7181 12.7519 49.243 12.7519 49.243H19.6498C21.3453 49.243 22.7196 50.5979 22.7196 52.2697C22.7196 54.1349 21.3899 55.3579 19.7391 55.3931L21.5416 57.6895C22.1217 58.4286 23.023 59.1237 23.9778 59.1237ZM14.6704 51.3898V54.3021H19.2215C20.2656 54.3021 21.3185 53.695 21.497 52.7976C21.7736 51.3898 20.7653 50.334 19.3821 50.334H15.7413C15.1523 50.334 14.6704 50.8091 14.6704 51.3898Z" fill="#F1E2DE"/>
<path d="M33.7492 59.9419L33.5975 59.4932C34.0972 59.1325 34.5969 58.587 34.5166 58.3758L33.651 56.229H28.3593L27.4848 58.3934C27.4134 58.6046 27.9131 59.1413 28.4039 59.4932L28.2522 59.9419H24.5578L24.4597 59.4668C24.4686 59.4668 25.3163 59.0973 25.825 58.0415L29.4747 48.9966H32.5355L33.0353 50.246L36.1853 58.0503C36.685 59.0973 37.5417 59.4668 37.5506 59.4668L37.4525 59.9419H36.578H33.7492ZM33.0085 54.6365L31.3755 50.5891H30.6348L28.9929 54.6365H33.0085Z" fill="#F1E2DE"/>
<path d="M36.569 59.6956H35.3197H33.7402C33.7402 59.6956 34.9628 58.8245 34.7486 58.279L33.8206 55.9738H28.1808L27.2438 58.2966C27.0564 58.8421 28.2522 59.6956 28.2522 59.6956H26.6816H25.4323H24.5578C24.5578 59.6956 25.4859 59.3085 26.0481 58.1559L29.1981 50.3428L29.6354 49.2518H32.3482L32.7854 50.3428L35.9354 58.1471C36.4976 59.3173 37.4346 59.7044 37.4346 59.7044H36.569V59.6956ZM33.3833 54.8828L31.545 50.334H30.4563L28.6181 54.8828H33.3833Z" fill="#F1E2DE"/>
<path d="M46.3493 59.9419L40.8702 50.5891H40.4597V58.3582C40.4597 59.0885 41.0844 59.4844 41.0933 59.4844L40.9595 59.9419H38.3002L38.1753 59.4756C38.202 59.458 38.7999 59.0973 38.7999 58.3494V48.9966H41.8161L47.2952 58.3582H47.5094V50.5891C47.5094 49.7973 46.9026 49.4717 46.8937 49.4717L47.0097 49.0054H49.6689L49.7849 49.4717C49.7581 49.4893 49.1692 49.8149 49.1692 50.5891V59.9507H46.3493V59.9419Z" fill="#F1E2DE"/>
<path d="M49.6689 49.243C49.6689 49.243 48.9193 49.6301 48.9193 50.5803V59.6956H46.4921L41.013 50.334H40.2009V58.3494C40.2009 59.2293 40.9505 59.6868 40.9505 59.6868H38.2913C38.2913 59.6868 39.0409 59.2557 39.0409 58.3494V49.243H41.6644L47.1435 58.6046H47.7503V50.5891C47.7503 49.6389 47.0007 49.2518 47.0007 49.2518H49.6689V49.243Z" fill="#F1E2DE"/>
<path d="M56.1475 60.1003C52.7029 60.1003 50.9539 58.5606 50.9539 55.5251V55.2524L52.7654 55.4459V55.6659C52.7654 58.0239 54.1218 58.5078 56.1475 58.5078C59.5295 58.5078 59.5295 57.32 59.5295 56.9329C59.5295 56.2554 57.9322 55.8946 56.3795 55.5427C53.9433 54.9884 51.1859 54.3549 51.1859 52.2081C51.1859 51.205 51.6678 48.8646 56.085 48.8646C59.7794 48.8646 61.0912 50.9499 61.0912 52.7272V53.0087L59.2707 52.8064V52.5864C59.2707 51.1347 58.2267 50.4308 56.085 50.4308C53.9433 50.4308 52.8547 51.0291 52.8547 52.2169C52.8547 53.0703 54.6215 53.4927 56.3349 53.8974C58.6193 54.4429 61.1982 55.0588 61.1982 56.9417C61.1982 58.3934 59.8775 60.1003 56.1475 60.1003Z" fill="#F1E2DE"/>
<path d="M60.9484 56.9417C60.9484 58.4902 59.3689 59.854 56.1475 59.854C52.8725 59.854 51.2038 58.4902 51.2038 55.5251L52.5066 55.6659C52.5066 58.279 54.1486 58.7542 56.1475 58.7542C58.539 58.7542 59.7794 58.1911 59.7794 56.9329C59.7794 54.918 51.4358 55.6483 51.4358 52.2081C51.4358 50.6507 52.5156 49.111 56.085 49.111C59.7705 49.111 60.8413 51.2226 60.8413 52.7272L59.5295 52.5776C59.5295 50.8971 58.2534 50.1756 56.0939 50.1756C53.8898 50.1756 52.6137 50.8091 52.6137 52.2081C52.6048 54.4869 60.9484 53.8094 60.9484 56.9417Z" fill="#F1E2DE"/>
<path d="M62.4832 59.9419L62.3494 59.4844C62.3762 59.4668 62.983 59.0709 62.983 58.3582V50.5803C62.983 49.9469 62.3405 49.4453 62.3315 49.4365L62.4832 48.9878H71.041L71.7281 51.9969L71.273 52.1905C70.693 51.337 69.9969 50.5891 69.7828 50.5891H65.4727C65.0176 50.5891 64.6517 50.9499 64.6517 51.3986V53.5894H67.9356C68.4532 53.5894 68.8369 52.9999 68.8458 52.9911L69.3098 53.1231V55.6747L68.8369 55.7891C68.8369 55.7803 68.4888 55.182 67.9356 55.182H64.6517V58.3582C64.6517 59.0973 65.2763 59.4756 65.2853 59.4844L65.1425 59.9419H62.4832Z" fill="#F1E2DE"/>
<path d="M71.4783 52.0497C71.4783 52.0497 70.3182 50.334 69.7739 50.334H65.4637C64.8748 50.334 64.3929 50.8091 64.3929 51.3898V53.8358H67.9267C68.5959 53.8358 69.051 53.1143 69.051 53.1143V55.6659C69.051 55.6659 68.6495 54.9268 67.9267 54.9268H64.3929V58.3494C64.3929 59.2381 65.1425 59.6868 65.1425 59.6868H62.4832C62.4832 59.6868 63.2328 59.2117 63.2328 58.3494V50.5715C63.2328 49.7973 62.4832 49.2342 62.4832 49.2342H70.8358L71.4783 52.0497Z" fill="#F1E2DE"/>
<path d="M78.3851 60.1003C75.2173 60.1003 72.5402 57.5224 72.5402 54.4693C72.5402 51.4162 75.2173 48.8382 78.3851 48.8382C81.553 48.8382 84.2301 51.4162 84.2301 54.4693C84.2301 57.5224 81.553 60.1003 78.3851 60.1003ZM78.3851 50.4308C76.0829 50.4308 74.2089 52.2433 74.2089 54.4693C74.2089 56.6601 76.1185 58.5078 78.3851 58.5078C80.6518 58.5078 82.5614 56.6601 82.5614 54.4693C82.5614 52.2433 80.6874 50.4308 78.3851 50.4308Z" fill="#F1E2DE"/>
<path d="M78.3852 49.0934C81.4013 49.0934 83.9803 51.5042 83.9803 54.4693C83.9803 57.4432 81.4013 59.854 78.3852 59.854C75.369 59.854 72.79 57.4432 72.79 54.4693C72.79 51.4954 75.369 49.0934 78.3852 49.0934ZM73.9501 54.4693C73.9501 56.7129 75.8598 58.763 78.3852 58.763C80.9016 58.763 82.8202 56.7129 82.8202 54.4693C82.8202 52.1905 80.9105 50.1756 78.3852 50.1756C75.8687 50.1756 73.9501 52.1905 73.9501 54.4693Z" fill="#F1E2DE"/>
<path d="M85.4437 59.9419L85.3099 59.4756C85.3367 59.458 85.9345 59.0973 85.9345 58.3494V50.7035C85.9345 49.8677 85.3277 49.4629 85.301 49.4453L85.4348 48.9878H92.3328C94.1621 48.9878 95.6524 50.4572 95.6524 52.2609C95.6524 54.003 94.5191 55.3403 92.895 55.5955L94.4209 57.5312C95.0723 58.367 95.9112 58.8685 96.6607 58.8685H96.9106V59.9419H96.6607C95.233 59.9419 93.7516 59.2821 92.9753 58.2878L90.905 55.6483H87.5943V58.3582C87.5943 59.0973 88.1922 59.4668 88.219 59.4844L88.0851 59.9507H85.4437V59.9419ZM91.9134 54.0558C92.9039 54.0558 93.7963 53.4838 93.939 52.7536C94.055 52.1817 93.9301 51.645 93.5999 51.2402C93.2519 50.8267 92.6987 50.5803 92.0829 50.5803H88.4421C87.9959 50.5803 87.6211 50.9411 87.6211 51.3898V54.0558H91.9134Z" fill="#F1E2DE"/>
<path d="M96.6697 59.1237V59.6956C95.4114 59.6956 93.9569 59.1237 93.1895 58.1383L91.0389 55.4019H87.3534V58.3582C87.3534 59.2645 88.103 59.6956 88.103 59.6956H85.4437C85.4437 59.6956 86.1933 59.2557 86.1933 58.3582V50.7123C86.1933 49.7181 85.4437 49.243 85.4437 49.243H92.3417C94.0372 49.243 95.4114 50.5979 95.4114 52.2697C95.4114 54.1349 94.0818 55.3579 92.4309 55.3931L94.2335 57.6895C94.8135 58.4286 95.7148 59.1237 96.6697 59.1237ZM87.3623 51.3898V54.3021H91.9134C92.9574 54.3021 94.0104 53.695 94.1889 52.7976C94.4655 51.3898 93.4572 50.334 92.074 50.334H88.4332C87.8442 50.334 87.3623 50.8091 87.3623 51.3898Z" fill="#F1E2DE"/>
<path d="M110.715 59.4756C110.742 59.458 111.34 59.1237 111.34 58.3582V50.5803H111.01L107.217 59.9331L104.121 59.9419L100.328 50.5803H99.9982V58.3494C99.9982 59.0797 100.605 59.458 100.632 59.4756L100.498 59.9331L97.8387 59.9419L97.6959 59.4844C97.7048 59.4844 98.3384 59.0269 98.3384 58.3494V48.9966L101.471 48.9878L105.263 58.3494H106.093L109.886 48.9966L113.018 48.9878V58.3494C113.018 59.1677 113.616 59.458 113.625 59.458L113.517 59.9331L110.858 59.9419L110.715 59.4756Z" fill="#F1E2DE"/>
<path d="M111.59 58.3582V50.334H110.831L107.039 59.6956H104.29L100.498 50.334H99.7394V58.3494C99.7394 59.2381 100.489 59.6868 100.489 59.6868L97.8297 59.6956C97.8297 59.6956 98.5793 59.1765 98.5793 58.3582V49.2518L101.283 49.243L105.076 58.6046H106.245L110.037 49.2518L112.741 49.243V58.3582C112.741 59.3437 113.491 59.6956 113.491 59.6956L110.831 59.7044C110.84 59.6956 111.59 59.2909 111.59 58.3582Z" fill="#F1E2DE"/>
<path d="M141.359 55.5691C141.359 55.5691 140.556 54.3549 140.163 54.3549H138.37C138.049 54.5221 137.843 54.6716 137.843 55.0324V60.0211C137.843 60.6634 138.379 60.9714 138.379 60.9714H136.496C136.496 60.9714 137.022 60.6986 137.022 60.0211V55.0236C137.022 54.6628 136.817 54.5221 136.496 54.3549H134.702C134.318 54.3549 133.506 55.5691 133.506 55.5691L133.846 53.6246V53.5894H141.02V53.6246L141.359 55.5691Z" fill="#F1E2DE"/>
<path d="M146.678 60.0299V58.0151C146.678 56.9417 146.437 56.0354 145.357 56.0354C144.045 56.0354 143.108 57.0912 143.108 58.0855V60.0211C143.108 60.6546 143.644 60.9714 143.644 60.9714H141.752C141.752 60.9714 142.287 60.6634 142.287 60.0211V53.8622C142.287 53.2287 141.752 52.9119 141.752 52.9119H143.117V56.7921C143.572 55.8858 144.349 55.2611 145.366 55.2611C146.829 55.2611 147.499 56.5369 147.516 58.1119V60.0211C147.516 60.6546 148.043 60.9714 148.043 60.9714H146.16C146.142 60.9714 146.678 60.6634 146.678 60.0299Z" fill="#F1E2DE"/>
<path d="M155.36 60.9714H153.906L153.817 59.9419C153.263 60.6282 152.496 61.077 151.532 61.077C150.211 61.077 148.552 60.5314 148.552 59.1325C148.552 58.1822 149.444 57.7687 150.506 57.7687C151.809 57.7687 153.361 58.1207 153.817 58.2438V58.1647C153.817 56.8273 152.933 56.0354 151.532 56.0354C150.22 56.0354 149.819 56.5369 149.373 57.3288L149.025 57.1088C149.025 57.1088 149.346 55.2699 151.532 55.2699C152.451 55.2699 153.112 55.4987 153.656 55.9738C154.2 56.4489 154.638 57.1704 154.638 58.1734V60.0299C154.646 60.6634 155.36 60.9714 155.36 60.9714ZM153.763 58.6486C152.924 58.4902 149.382 57.8391 149.382 59.2293C149.382 59.9683 150.381 60.3027 151.541 60.3027C152.799 60.3027 153.611 59.4316 153.763 58.6486Z" fill="#F1E2DE"/>
<path d="M161.598 60.9714H160.242V59.5548C159.786 60.461 159.01 61.0857 158.002 61.0857C156.44 61.0857 155.86 59.81 155.851 58.235V56.3258C155.851 55.6923 155.316 55.3755 155.316 55.3755H157.19C157.19 55.3755 156.663 55.6835 156.663 56.3258V58.3406C156.663 59.4052 156.993 60.3203 157.993 60.3203C159.394 60.3203 160.242 59.37 160.242 58.2702V56.3346C160.242 55.7011 159.715 55.3843 159.715 55.3843H161.589C161.589 55.3843 161.063 55.6923 161.063 56.3346V60.0387C161.071 60.6546 161.598 60.9714 161.598 60.9714Z" fill="#F1E2DE"/>
<path d="M170.281 60.0299V58.0151C170.281 56.9417 170.04 56.0354 168.96 56.0354C167.648 56.0354 166.711 57.0912 166.711 58.0855V60.0211C166.711 60.6546 167.247 60.9714 167.247 60.9714H165.355C165.355 60.9714 165.89 60.6634 165.89 60.0211V53.8622C165.89 53.2287 165.355 52.9119 165.355 52.9119H166.72V56.7921C167.175 55.8858 167.952 55.2611 168.969 55.2611C170.432 55.2611 171.102 56.5369 171.119 58.1119V60.0211C171.119 60.6546 171.646 60.9714 171.646 60.9714H169.763C169.745 60.9714 170.281 60.6634 170.281 60.0299Z" fill="#F1E2DE"/>
<path d="M172.654 60.0299V56.3258C172.654 55.6923 172.119 55.3755 172.119 55.3755H173.484L173.475 60.0211C173.475 60.6546 174.002 60.9714 174.002 60.9714H172.119C172.119 60.9714 172.654 60.6634 172.654 60.0299ZM172.654 54.1613C172.654 53.783 172.744 53.475 173.056 53.475C173.368 53.475 173.475 53.783 173.475 54.1613C173.475 54.5397 173.368 54.8476 173.056 54.8476C172.744 54.8476 172.654 54.5397 172.654 54.1613Z" fill="#F1E2DE"/>
<path d="M180.837 59.1589C180.837 59.1589 180.213 61.0857 177.973 61.0857C175.135 61.0857 174.626 59.0181 174.626 58.191C174.626 57.012 175.314 55.2875 177.723 55.2875C180.168 55.2875 180.703 56.5809 180.703 57.1616C180.703 57.7511 180.239 58.5518 178.758 58.5518C177.464 58.5518 175.876 58.1734 175.447 58.0767C175.447 59.1149 176.224 60.3203 177.955 60.3203C179.883 60.3203 180.489 58.9565 180.489 58.9565L180.837 59.1589ZM175.501 57.6543C176.081 57.7687 179.883 58.5342 179.883 57.1176C179.883 56.6777 179.204 56.0442 177.714 56.0442C176.5 56.0442 175.671 56.8713 175.501 57.6543Z" fill="#F1E2DE"/>
<path d="M187.601 60.9714H186.245V59.5548C185.79 60.461 185.014 61.0857 184.005 61.0857C182.444 61.0857 181.864 59.81 181.855 58.235V56.3258C181.855 55.6923 181.319 55.3755 181.319 55.3755H183.193C183.193 55.3755 182.667 55.6835 182.667 56.3258V58.3406C182.667 59.4052 182.997 60.3203 183.996 60.3203C185.397 60.3203 186.245 59.37 186.245 58.2702V56.3346C186.245 55.7011 185.719 55.3843 185.719 55.3843H187.593C187.593 55.3843 187.066 55.6923 187.066 56.3346V60.0387C187.066 60.6546 187.601 60.9714 187.601 60.9714Z" fill="#F1E2DE"/>
<path d="M197.596 58.1734C197.596 59.7836 196.302 61.0769 194.83 61.0769C193.812 61.0769 193.018 60.4523 192.572 59.5372C192.572 59.8452 192.572 60.0211 192.572 60.0211C192.572 60.6546 193.098 60.9714 193.098 60.9714H191.751V53.8622C191.751 53.2287 191.224 52.9119 191.224 52.9119H192.572C192.572 52.9119 192.572 54.918 192.572 56.8009C193.018 55.8858 193.812 55.2611 194.83 55.2611C196.302 55.2699 197.596 56.5721 197.596 58.1734ZM196.775 58.1734C196.775 57.056 195.856 56.0442 194.83 56.0442C193.313 56.0442 192.572 57.0032 192.572 58.1734C192.572 59.2645 193.313 60.3027 194.83 60.3027C195.811 60.3027 196.775 59.326 196.775 58.1734Z" fill="#F1E2DE"/>
<path d="M205.101 60.9714H203.646L203.557 59.9419C203.004 60.6282 202.236 61.077 201.272 61.077C199.952 61.077 198.292 60.5314 198.292 59.1325C198.292 58.1822 199.184 57.7687 200.246 57.7687C201.549 57.7687 203.102 58.1207 203.557 58.2438V58.1647C203.557 56.8273 202.673 56.0354 201.272 56.0354C199.961 56.0354 199.559 56.5369 199.113 57.3288L198.765 57.1088C198.765 57.1088 199.086 55.2699 201.272 55.2699C202.192 55.2699 202.852 55.4987 203.396 55.9738C203.941 56.4489 204.378 57.1704 204.378 58.1734V60.0299C204.378 60.6634 205.101 60.9714 205.101 60.9714ZM203.503 58.6486C202.665 58.4902 199.122 57.8391 199.122 59.2293C199.122 59.9683 200.121 60.3027 201.281 60.3027C202.54 60.3027 203.352 59.4316 203.503 58.6486Z" fill="#F1E2DE"/>
<path d="M210.464 60.0299V58.0151C210.464 56.9504 210.134 56.0354 209.134 56.0354C207.733 56.0354 206.885 56.9856 206.885 58.0855V60.0211C206.885 60.6546 207.412 60.9714 207.412 60.9714H205.538C205.538 60.9714 206.073 60.6634 206.073 60.0211V56.317C206.073 55.6835 205.538 55.3667 205.538 55.3667H206.894V56.7833C207.349 55.877 208.126 55.2523 209.134 55.2523C210.696 55.2523 211.276 56.5281 211.285 58.1031V60.0123C211.285 60.6458 211.82 60.9626 211.82 60.9626H209.946C209.937 60.9714 210.464 60.6634 210.464 60.0299Z" fill="#F1E2DE"/>
<path d="M216.889 56.0442L216.88 60.0299C216.88 60.6634 217.406 60.9802 217.406 60.9802H216.068V56.0442H215.541V55.3843H216.068V53.6246H216.889V55.3843H218.79L218.263 56.0442H216.889Z" fill="#F1E2DE"/>
<path d="M223.956 60.0299V58.0151C223.956 56.9417 223.715 56.0354 222.636 56.0354C221.324 56.0354 220.387 57.0912 220.387 58.0855V60.0211C220.387 60.6546 220.922 60.9714 220.922 60.9714H219.03C219.03 60.9714 219.566 60.6634 219.566 60.0211V53.8622C219.566 53.2287 219.03 52.9119 219.03 52.9119H220.396V56.7921C220.851 55.8858 221.627 55.2611 222.645 55.2611C224.108 55.2611 224.777 56.5369 224.795 58.1119V60.0211C224.795 60.6546 225.322 60.9714 225.322 60.9714H223.439C223.43 60.9714 223.956 60.6634 223.956 60.0299Z" fill="#F1E2DE"/>
<path d="M232.639 60.9714H231.184L231.095 59.9419C230.542 60.6282 229.775 61.077 228.811 61.077C227.49 61.077 225.83 60.5314 225.83 59.1325C225.83 58.1822 226.723 57.7687 227.785 57.7687C229.087 57.7687 230.64 58.1207 231.095 58.2438V58.1647C231.095 56.8273 230.212 56.0354 228.811 56.0354C227.499 56.0354 227.097 56.5369 226.651 57.3288L226.303 57.1088C226.303 57.1088 226.624 55.2699 228.811 55.2699C229.73 55.2699 230.39 55.4987 230.935 55.9738C231.479 56.4489 231.916 57.1704 231.916 58.1734V60.0299C231.925 60.6634 232.639 60.9714 232.639 60.9714ZM231.042 58.6486C230.203 58.4902 226.66 57.8391 226.66 59.2293C226.66 59.9683 227.66 60.3027 228.82 60.3027C230.078 60.3027 230.89 59.4316 231.042 58.6486Z" fill="#F1E2DE"/>
<path d="M238.011 60.0299V58.0151C238.011 56.9504 237.681 56.0354 236.681 56.0354C235.28 56.0354 234.433 56.9856 234.433 58.0855V60.0211C234.433 60.6546 234.959 60.9714 234.959 60.9714H233.085C233.085 60.9714 233.621 60.6634 233.621 60.0211V56.317C233.621 55.6835 233.085 55.3667 233.085 55.3667H234.442V56.7833C234.897 55.877 235.673 55.2523 236.681 55.2523C238.243 55.2523 238.823 56.5281 238.832 58.1031V60.0123C238.832 60.6458 239.367 60.9626 239.367 60.9626H237.493C237.476 60.9714 238.011 60.6634 238.011 60.0299Z" fill="#F1E2DE"/>
<path d="M152.237 53.1319L153.156 54.6365H152.442L151.907 53.6422H151.871L151.327 54.6365H150.64L151.541 53.1319H152.237ZM154.477 52.2609L153.406 53.651H152.862L153.602 52.2609H154.477Z" fill="#F1E2DE"/>
<path d="M178.419 52.9911L179.338 54.4957H178.633L178.089 53.5014H178.071L177.527 54.4957H176.84L177.741 52.9911H178.419ZM179.186 53.4838C179.356 53.0439 179.731 52.9471 179.731 52.6216C179.731 52.4192 179.57 52.2697 179.365 52.2697C179.151 52.2697 178.981 52.472 178.865 52.648L178.508 52.4368C178.705 52.0761 179.008 51.7593 179.534 51.7593C180.016 51.7593 180.382 52.0937 180.382 52.5072C180.382 53.0263 179.936 53.1231 179.65 53.5982L179.186 53.4838Z" fill="#F1E2DE"/>
<path d="M201.995 54.7684C202.12 54.3021 202.602 54.1701 202.602 53.7742C202.602 53.5542 202.441 53.4135 202.236 53.4135C202.013 53.4135 201.844 53.5894 201.719 53.783L201.353 53.5718C201.531 53.1935 201.87 52.868 202.388 52.868C202.905 52.868 203.298 53.1935 203.298 53.6598C203.298 54.2493 202.727 54.4165 202.486 54.8916L201.995 54.7684Z" fill="#F1E2DE"/>
<path d="M229.435 53.1319L230.462 54.6364H229.748L229.123 53.6334H229.105L228.481 54.6364H227.776L228.784 53.1319H229.435Z" fill="#F1E2DE"/>
</g>
<defs>
<clipPath id="clip0_1_10">
<rect width="274" height="61" fill="white" transform="translate(0 0.0857544)"/>
</clipPath>
</defs>
</svg>
