<svg width="314" height="69" viewBox="0 0 314 69" fill="none" xmlns="http://www.w3.org/2000/svg">
<g clip-path="url(#clip0_263_354)">
<path d="M150.529 12.54C148.47 20.4223 144.617 34.1367 138.98 53.5539C137.298 59.4258 136.105 63.6058 135.402 66.0441C135.351 66.3129 135.188 66.5219 134.963 66.6811C134.688 66.8901 134.474 66.9996 134.209 66.9996C133.934 66.9996 133.72 66.8901 133.618 66.6811C133.455 66.5219 133.455 66.3129 133.506 66.0441C134.209 63.556 135.402 59.376 137.084 53.5041C138.603 48.3687 140.386 42.228 142.395 35.1917C144.403 28.1553 146.187 21.537 147.869 15.3964C149.5 9.25573 150.529 4.96625 150.906 2.58762C150.203 3.48334 149.275 4.70749 148.144 6.28992C147.002 7.8823 145.871 9.5145 144.729 11.2164C142.945 13.9135 140.876 16.8793 138.653 20.0541C136.38 23.2787 133.934 26.4535 131.385 29.5785C128.837 32.7036 126.125 35.6097 123.363 38.2073C120.539 40.8546 117.675 42.9745 114.8 44.5569C111.925 46.1393 109.051 46.9355 106.176 46.9355C104.117 46.9355 102.71 46.2986 102.007 45.0346C101.253 43.8204 100.926 42.1783 101.028 40.1679C101.14 38.1575 101.518 35.9879 102.109 33.659C102.7 31.3799 103.301 29.1108 104.005 26.9412C104.168 26.4634 104.28 25.9857 104.443 25.508C105.473 22.3332 106.339 19.2579 107.104 16.302C107.807 13.3362 108.184 10.7486 108.184 8.46949C108.133 6.19039 107.481 4.54825 106.176 3.49329C103.842 1.75162 99.071 2.32886 91.864 5.34444C86.5021 7.6733 81.8334 10.5794 77.9291 14.0229C73.974 17.4665 70.9362 20.9598 68.7649 24.4531C66.5427 27.9961 65.401 31.0117 65.2991 33.4998C65.2481 36.9433 67.032 38.6352 70.7731 38.6352C71.0484 38.6352 71.2115 38.7447 71.3644 38.9039C71.5275 39.0632 71.5275 39.3319 71.4765 39.5907C71.4255 39.8594 71.2624 40.0684 71.0382 40.2276C70.7629 40.4366 70.4979 40.5461 70.2227 40.5461C67.9494 40.5461 66.2063 39.9688 65.0238 38.8044C63.7802 37.6897 63.2399 36.0575 63.2909 33.9377C63.6681 29.2302 66.4306 23.8858 71.6396 17.9541C76.8486 12.0225 83.4746 7.2553 91.4971 3.65253C99.4686 0.318477 104.831 -0.268715 107.654 1.91086C109.224 3.18477 110.04 5.03591 110.152 7.4643C110.203 9.90264 109.876 12.6993 109.122 15.8243C108.307 18.9991 107.44 22.2237 106.411 25.5578C106.247 26.135 106.033 26.7222 105.819 27.3592C105.228 29.2601 104.678 31.2207 104.137 33.2908C103.546 35.3509 103.22 37.2618 103.057 39.0035C102.894 40.8048 103.057 42.2878 103.597 43.3925C104.086 44.5071 105.116 45.0844 106.686 45.0844C109.346 45.0844 111.997 44.2882 114.708 42.7555C117.369 41.2228 120.019 39.1527 122.68 36.6149C125.34 34.1268 127.879 31.3202 130.325 28.2549C132.761 25.2393 135.096 22.164 137.267 19.0987C139.438 16.0333 141.385 13.167 143.18 10.5197C145.779 6.65816 147.736 3.96106 148.98 2.36867C150.203 0.796192 151.233 0 152.109 0C152.385 0 152.65 0.109476 152.813 0.318477C153.302 0.577239 152.537 4.65772 150.529 12.54Z" fill="#DB4A2B"/>
<path d="M153.241 45.99C151.834 45.99 150.856 45.3033 150.315 43.9797C149.938 42.656 150.152 41.3323 151.019 39.9589C150.906 39.4314 150.968 38.9039 151.182 38.4262C151.559 37.63 152.16 36.9433 152.966 36.4158C153.781 35.9381 154.648 35.6794 155.626 35.6794C157.359 35.6794 158.552 36.2068 159.153 37.2618C159.755 38.3167 159.908 39.5409 159.592 40.9143C162.466 40.8646 165.667 40.5958 169.133 40.0186C172.599 39.4414 175.637 38.6452 178.236 37.64C178.511 37.5305 178.725 37.5305 178.99 37.5902C179.204 37.64 179.317 37.7992 179.368 38.0679C179.418 38.3366 179.368 38.5456 179.204 38.7546C179.041 39.0234 178.878 39.1826 178.613 39.3319C175.851 40.4466 172.599 41.2925 168.97 41.8697C165.341 42.447 161.977 42.7655 158.888 42.7655H158.776C158.399 43.4024 157.961 43.9797 157.369 44.4574C156.115 45.4626 154.76 45.99 153.241 45.99ZM152.211 41.5413C152.048 42.0688 152.048 42.5465 152.211 43.0242C152.487 43.7607 153.027 44.1389 153.781 44.1389C154.699 44.1389 155.565 43.8204 156.279 43.2432C156.442 43.0839 156.605 42.8749 156.768 42.7157C155.626 42.6659 154.658 42.5067 153.893 42.2877C153.19 42.0787 152.65 41.81 152.211 41.5413ZM153.129 39.4314C153.404 39.9091 153.995 40.2276 154.862 40.4864C155.565 40.6456 156.493 40.8048 157.624 40.8546C157.838 40.0086 157.787 39.2622 157.41 38.5755C157.033 37.8888 156.268 37.5703 155.137 37.5703C154.597 37.5703 154.158 37.6798 153.781 37.8888C153.404 38.0978 153.129 38.3665 153.027 38.6253C152.976 38.8343 152.976 39.0532 153.027 39.2025L153.129 39.4314Z" fill="#DB4A2B"/>
<path d="M193.251 36.4158C193.578 36.0476 193.904 35.7789 194.118 35.7291C194.393 35.6794 194.607 35.6794 194.821 35.8386C194.984 35.9481 195.035 36.1073 195.096 36.2665C195.096 36.376 195.096 36.5353 195.096 36.6348L194.984 37.003C194.658 38.0082 194.444 39.0632 194.332 40.0684C194.22 41.0736 194.444 41.9792 195.035 42.7157C195.627 43.4522 196.819 43.8801 198.613 44.0394C200.948 44.0891 203.384 43.4621 206.045 42.0787C208.705 40.7551 211.091 39.2722 213.201 37.7395C213.476 37.5803 213.69 37.5305 213.965 37.5305C214.24 37.5803 214.393 37.6897 214.556 37.849C214.669 38.058 214.669 38.2769 214.607 38.5357C214.495 38.8044 214.332 39.0134 214.067 39.1726C211.733 40.8148 209.245 42.3475 206.585 43.7209C203.873 45.154 201.223 45.8905 198.675 45.9403C198.399 45.9403 198.185 45.9403 197.971 45.8905C195.586 45.6815 194.016 45.0446 193.313 43.9896C192.558 42.9844 192.232 41.82 192.395 40.4963C192.395 40.1778 192.446 39.9191 192.446 39.6504C191.304 40.8148 190.173 41.7702 189.082 42.5067C187.237 43.8304 185.616 44.7261 184.148 45.2038C182.68 45.6815 181.549 45.9502 180.621 45.9502C180.346 45.9502 180.081 45.9502 179.806 45.9005C176.829 45.4228 176.391 42.2977 178.399 36.585C178.511 36.3163 178.674 36.0575 178.939 35.8983C179.153 35.7391 179.378 35.6893 179.643 35.7391C179.918 35.7391 180.132 35.8485 180.234 36.0078C180.346 36.2168 180.346 36.4855 180.285 36.7542C179.694 38.4461 179.306 39.7698 179.204 40.7252C179.092 41.7304 179.153 42.4171 179.317 42.8948C179.48 43.3726 179.694 43.691 179.969 43.8503C180.244 44.0095 180.458 44.0593 180.672 44.0593C181.376 44.328 182.895 43.9 185.229 42.8948C187.502 41.9195 190.153 39.7499 193.251 36.4158Z" fill="#DB4A2B"/>
<path d="M212.324 56.1515C211.508 56.1515 210.856 56.042 210.377 55.7832C209.46 55.3055 209.133 54.569 209.296 53.5638C209.725 51.3444 212.762 48.5379 218.399 45.2038C217.808 44.7858 217.156 44.3081 216.34 43.7707C215.525 43.2929 214.77 42.7157 213.955 42.1285C212.925 41.2826 212.487 40.4366 212.599 39.5907C212.65 38.7945 212.925 38.1077 213.364 37.63C214.72 35.8884 216.83 34.4055 219.653 33.2908C222.477 32.1761 224.801 31.8079 226.697 32.0766C228.267 32.4448 228.868 33.3505 228.481 34.8832C228.43 35.1519 228.267 35.3609 228.043 35.5201C227.768 35.6794 227.503 35.7888 227.227 35.7888C226.952 35.7888 226.789 35.6794 226.687 35.5201C226.524 35.3609 226.473 35.1519 226.524 34.8832C226.575 34.6742 226.575 34.4552 226.524 34.3059C226.473 34.1467 226.198 33.9875 225.821 33.878C224.353 33.7187 222.406 34.087 220.071 34.9926C217.686 35.8884 215.953 37.003 214.923 38.3267C214.709 38.5954 214.597 38.9039 214.597 39.2821C214.546 39.6504 214.811 40.0783 215.413 40.556C216.167 41.1333 217.033 41.7205 217.961 42.3574C218.879 42.9347 219.694 43.5219 220.51 44.0991C224.302 42.2479 228.583 40.765 233.303 39.6006C238.022 38.4362 242.192 37.8589 245.933 37.8589C246.208 37.8589 246.422 37.9684 246.585 38.1277C246.697 38.2869 246.697 38.5556 246.636 38.8144C246.585 39.0831 246.422 39.2921 246.198 39.4513C245.923 39.6106 245.658 39.72 245.382 39.72C241.967 39.72 238.114 40.2475 233.833 41.2527C229.5 42.3077 225.535 43.6313 221.957 45.2735C223.578 46.5971 224.291 48.0801 224.016 49.6625C223.741 50.9862 222.66 52.1506 220.815 53.2653C217.584 55.1463 214.77 56.1017 212.324 56.1515ZM219.867 46.3085C219.592 46.4678 219.327 46.627 219.052 46.7862C216.717 48.1597 215.046 49.3241 213.904 50.2298C212.762 51.1852 212.059 51.9217 211.733 52.3994C211.356 52.9269 211.192 53.2454 211.243 53.4046C211.192 53.5141 211.192 53.6136 211.243 53.7231C211.294 53.8325 211.407 53.9321 211.621 54.0415C212.273 54.36 213.354 54.36 214.872 53.9918C216.391 53.6235 218.124 52.8771 220.132 51.7724C221.274 51.0857 221.916 50.399 222.079 49.762C222.192 48.6374 221.437 47.5227 219.867 46.3085Z" fill="#DB4A2B"/>
<path d="M250.979 46.0398H250.326C245.28 45.8806 243.119 44.2384 243.935 41.0138C244.098 40.2774 244.587 39.4812 245.291 38.685C245.994 37.8888 247.024 37.1523 248.328 36.5651C249.572 35.9879 251.142 35.7192 252.987 35.7192C254.669 35.7192 255.648 36.1969 255.913 37.2021C256.076 37.8888 255.8 38.5755 255.097 39.2622C254.394 39.9489 253.313 40.4266 251.794 40.7451C250.224 41.1134 248.267 41.0636 245.943 40.6954L245.831 41.0138C245.556 42.228 245.994 43.074 247.136 43.5019C248.216 43.9797 249.47 44.1887 250.877 44.1887C257.268 44.3977 264.537 42.3873 272.61 38.2073C272.885 38.048 273.099 38.048 273.364 38.0978C273.578 38.1475 273.742 38.3068 273.803 38.5257C273.854 38.7945 273.854 39.0035 273.752 39.2125C273.589 39.4812 273.425 39.6404 273.16 39.7897C265.291 43.9797 257.86 46.0398 250.979 46.0398ZM247.513 38.9537C250.49 39.3219 252.559 39.1129 253.588 38.3765C253.752 38.267 253.864 38.1675 253.915 38.1077C253.966 38.058 253.966 38.058 253.966 37.9983C253.966 37.9485 253.853 37.839 253.639 37.7295C253.425 37.6201 253.048 37.5703 252.498 37.5703C251.356 37.5703 250.388 37.6798 249.572 37.9385C248.757 38.1973 248.053 38.5855 247.513 38.9537Z" fill="#DB4A2B"/>
<path d="M277.809 46.0398C275.474 46.0398 273.905 45.4626 273.089 44.2981C271.947 42.8152 271.784 39.9091 272.651 35.5102C273.517 31.1709 275.199 24.6123 277.748 15.7746C278.563 12.8685 279.43 9.68368 280.408 6.19039C280.459 5.92167 280.622 5.71267 280.898 5.55344C281.112 5.3942 281.336 5.28472 281.601 5.28472C281.866 5.28472 282.029 5.3942 282.192 5.55344C282.355 5.71267 282.355 5.92167 282.304 6.19039C281.387 9.68368 280.459 12.9083 279.644 15.8243C277.309 23.9256 275.688 30.116 274.761 34.4552C273.843 38.8442 273.843 41.6508 274.812 42.9745C275.301 43.7707 276.494 44.1389 278.278 44.1389C279.96 44.1389 281.642 43.8204 283.324 43.1337C285.006 42.447 286.575 41.6508 288.043 40.7551C289.511 39.8594 290.755 39.0632 291.897 38.3167C292.223 38.1077 292.488 37.8987 292.763 37.6798C293.038 37.5205 293.303 37.4708 293.579 37.4708C293.793 37.5205 293.956 37.63 294.119 37.839C294.231 37.9983 294.231 38.2073 294.17 38.476C294.058 38.7447 293.895 38.9537 293.63 39.1129C293.354 39.3219 293.038 39.5409 292.712 39.7499C291.57 40.5461 290.164 41.4418 288.594 42.3972C286.973 43.4024 285.23 44.2484 283.395 44.9351C281.55 45.6716 279.705 46.0398 277.809 46.0398Z" fill="#DB4A2B"/>
<path d="M290.877 67.2683C289.899 67.2683 289.144 66.9 288.604 66.1536C287.625 64.7205 287.36 62.1826 287.85 58.6395C288.288 55.0965 289.093 51.016 290.286 46.3085C289.797 46.199 289.256 46.0995 288.716 45.99C288.502 45.9403 288.339 45.781 288.288 45.6218C288.237 45.4626 288.237 45.2536 288.288 44.9849C288.339 44.7759 288.502 44.5668 288.716 44.4076C288.879 44.2484 289.093 44.1986 289.369 44.1389C289.909 44.0891 290.398 44.0891 290.887 44.1389C291.703 40.9641 292.62 37.7395 293.548 34.4552C293.976 32.8131 294.414 31.2804 294.853 29.7477C294.904 29.479 295.067 29.27 295.342 29.1108C295.556 28.9515 295.78 28.8421 296.045 28.8421C296.321 28.8421 296.484 28.9515 296.637 29.1108C296.8 29.27 296.8 29.479 296.749 29.7477C296.321 31.2804 295.882 32.8131 295.444 34.4552C294.527 37.7893 293.599 41.1731 292.682 44.6166C292.732 44.6664 292.845 44.6664 292.896 44.6664C298.808 45.1939 305.149 43.0242 311.927 38.2073C312.203 38.048 312.417 37.9385 312.682 37.9385C312.957 37.9883 313.12 38.0978 313.273 38.257C313.385 38.466 313.385 38.675 313.324 38.9437C313.273 39.2125 313.11 39.4215 312.835 39.5807C306.596 44.0294 300.745 46.3583 295.159 46.617C295.597 47.1943 295.974 47.8312 296.3 48.6274C297.279 51.2748 297.605 54.2406 297.218 57.4652C296.841 60.6897 295.913 63.3371 294.404 65.2977C293.314 66.6313 292.121 67.2683 290.877 67.2683ZM292.121 46.6768C291.04 50.9662 290.276 54.778 289.848 58.0524C289.358 61.3864 289.521 63.6058 290.337 64.8299C290.612 65.1982 290.928 65.4072 291.367 65.4072C291.53 65.4072 291.805 65.3574 292.07 65.1982C292.345 65.0887 292.61 64.8299 292.987 64.4617C294.129 62.929 294.883 60.6499 295.261 57.7438C295.638 54.8377 295.312 52.1904 294.394 49.7023C294.017 48.5279 293.263 47.5227 292.121 46.6768Z" fill="#DB4A2B"/>
<path d="M5.47177 67.7062L5.33925 67.1787C5.36983 67.1588 6.04262 66.7906 6.04262 65.9148V57.923C6.04262 57.5348 5.87952 57.3756 5.40041 57.1268H2.56654C2.32189 57.1268 1.52678 57.9727 0.874375 58.9381L0.354492 58.7291L0.904956 55.614V55.3353L1.19038 55.3254H13.0763V55.6041L13.6166 58.7291L13.0865 58.9282C12.4341 57.9628 11.6492 57.1168 11.4046 57.1168H8.58087C8.10177 57.3656 7.93867 57.5348 7.93867 57.913V65.9048C7.93867 66.7408 8.62165 67.1588 8.65223 67.1787L8.50952 67.7062H5.47177Z" fill="#841700"/>
<path d="M13.3413 58.7789C13.3413 58.7789 12.0365 56.8382 11.4147 56.8382H8.50949C7.97941 57.1069 7.65321 57.3358 7.65321 57.923V65.9148C7.65321 66.9399 8.50949 67.4275 8.50949 67.4275H5.47174C5.47174 67.4275 6.32802 66.9896 6.32802 65.9148V57.923C6.32802 57.3457 6.00182 57.1168 5.47174 56.8481H2.56652C1.9447 56.8481 0.639893 58.7789 0.639893 58.7789L1.19036 55.6638V55.6041H12.7909V55.6638L13.3413 58.7789Z" fill="#841700"/>
<path d="M14.9214 67.7062L14.7685 67.1787C14.7991 67.1588 15.4821 66.7508 15.4821 65.9048V57.2562C15.4821 56.3107 14.7889 55.8529 14.7583 55.833L14.9112 55.3155H22.791C24.8807 55.3155 26.5831 56.9775 26.5831 59.0178C26.5831 60.9883 25.2885 62.5011 23.4332 62.7897L25.1763 64.9792C25.9205 65.9247 26.8787 66.492 27.735 66.492H28.0204V67.7062H27.735C26.104 67.7062 24.4118 66.9598 23.525 65.8351L21.16 62.8494H17.3781V65.9148C17.3781 66.7508 18.0611 67.1688 18.0917 67.1887L17.9388 67.7162H14.9214V67.7062ZM22.3119 61.048C23.4434 61.048 24.4628 60.4011 24.6259 59.5751C24.7584 58.9282 24.6157 58.3211 24.2385 57.8633C23.841 57.3955 23.2089 57.1168 22.5056 57.1168H18.3465C17.8368 57.1168 17.4087 57.5249 17.4087 58.0325V61.048H22.3119Z" fill="#841700"/>
<path d="M27.7452 66.7806V67.4275C26.3078 67.4275 24.6463 66.7806 23.7696 65.666L21.3129 62.5708H17.1029V65.9148C17.1029 66.9399 17.9591 67.4275 17.9591 67.4275H14.9214C14.9214 67.4275 15.7777 66.9299 15.7777 65.9148V57.2661C15.7777 56.1415 14.9214 55.6041 14.9214 55.6041H22.8012C24.738 55.6041 26.3078 57.1368 26.3078 59.0277C26.3078 61.1376 24.789 62.521 22.9031 62.5608L24.9623 65.1584C25.6249 65.9944 26.6544 66.7806 27.7452 66.7806ZM17.1131 58.0325V61.3267H22.3119C23.5046 61.3267 24.7074 60.64 24.9113 59.6249C25.2273 58.0325 24.0754 56.8382 22.4954 56.8382H18.3363C17.6635 56.8382 17.1131 57.3756 17.1131 58.0325Z" fill="#841700"/>
<path d="M38.9074 67.7062L38.7341 67.1986C39.3049 66.7906 39.8758 66.1735 39.784 65.9347L38.7952 63.5063H32.7503L31.7513 65.9546C31.6698 66.1934 32.2406 66.8005 32.8013 67.1986L32.628 67.7062H28.4078L28.2957 67.1687C28.3058 67.1687 29.2743 66.7508 29.8553 65.5565L34.0246 55.3254H37.521L38.0919 56.7386L41.6903 65.5664C42.2611 66.7507 43.2397 67.1687 43.2499 67.1687L43.1378 67.7062H42.1388H38.9074ZM38.0613 61.7049L36.1958 57.1268H35.3498L33.4741 61.7049H38.0613Z" fill="#841700"/>
<path d="M42.1287 67.4275H40.7015H38.8972C38.8972 67.4275 40.2938 66.4422 40.0491 65.8252L38.989 63.2176H32.5465L31.4762 65.8451C31.2621 66.4621 32.6281 67.4275 32.6281 67.4275H30.834H29.4068H28.4078C28.4078 67.4275 29.468 66.9896 30.1102 65.6858L33.7086 56.8481L34.2081 55.614H37.307L37.8065 56.8481L41.4049 65.6759C42.0471 66.9996 43.1175 67.4375 43.1175 67.4375H42.1287V67.4275ZM38.4895 61.9835L36.3896 56.8382H35.1459L33.046 61.9835H38.4895Z" fill="#841700"/>
<path d="M53.301 67.7062L47.042 57.1268H46.5731V65.9148C46.5731 66.7408 47.2867 67.1887 47.2969 67.1887L47.144 67.7062H44.1062L43.9635 67.1787C43.9941 67.1588 44.6771 66.7508 44.6771 65.9048V55.3254H48.1226L54.3815 65.9148H54.6262V57.1268C54.6262 56.2311 53.933 55.8628 53.9228 55.8628L54.0553 55.3353H57.0931L57.2256 55.8628C57.195 55.8827 56.5222 56.251 56.5222 57.1268V67.7161H53.301V67.7062Z" fill="#841700"/>
<path d="M57.0931 55.6041C57.0931 55.6041 56.2369 56.042 56.2369 57.1168V67.4275H53.4642L47.2052 56.8382H46.2775V65.9048C46.2775 66.9 47.1338 67.4176 47.1338 67.4176H44.0961C44.0961 67.4176 44.9523 66.9299 44.9523 65.9048V55.6041H47.9493L54.2083 66.1934H54.9015V57.1268C54.9015 56.0519 54.0452 55.614 54.0452 55.614H57.0931V55.6041Z" fill="#841700"/>
<path d="M64.4937 67.8853C60.5589 67.8853 58.5609 66.1437 58.5609 62.7101V62.4016L60.6303 62.6205V62.8693C60.6303 65.5366 62.1797 66.084 64.4937 66.084C68.3571 66.084 68.3571 64.7404 68.3571 64.3025C68.3571 63.5361 66.5325 63.1281 64.7587 62.73C61.9758 62.103 58.826 61.3864 58.826 58.958C58.826 57.8235 59.3764 55.1761 64.4223 55.1761C68.6426 55.1761 70.141 57.5348 70.141 59.5452V59.8637L68.0615 59.6348V59.386C68.0615 57.7438 66.8688 56.9476 64.4223 56.9476C61.9758 56.9476 60.7322 57.6244 60.7322 58.968C60.7322 59.9334 62.7506 60.4111 64.7078 60.8689C67.3174 61.4859 70.2634 62.1826 70.2634 64.3124C70.2634 65.9546 68.7547 67.8853 64.4937 67.8853Z" fill="#841700"/>
<path d="M69.9779 64.3124C69.9779 66.064 68.1736 67.6067 64.4937 67.6067C60.7525 67.6067 58.8463 66.064 58.8463 62.7101L60.3346 62.8693C60.3346 65.8252 62.2103 66.3626 64.4937 66.3626C67.2256 66.3626 68.6425 65.7257 68.6425 64.3025C68.6425 62.0234 59.1114 62.8494 59.1114 58.958C59.1114 57.1965 60.3448 55.4548 64.4223 55.4548C68.6323 55.4548 69.8556 57.8434 69.8556 59.5452L68.3571 59.376C68.3571 57.4751 66.8994 56.659 64.4325 56.659C61.9146 56.659 60.4569 57.3756 60.4569 58.958C60.4467 61.5357 69.9779 60.7694 69.9779 64.3124Z" fill="#841700"/>
<path d="M71.7313 67.7062L71.5784 67.1887C71.609 67.1688 72.3021 66.7209 72.3021 65.9148V57.1168C72.3021 56.4003 71.5682 55.833 71.558 55.823L71.7313 55.3155H81.5071L82.292 58.7192L81.7722 58.9381C81.1096 57.9728 80.3144 57.1268 80.0698 57.1268H75.1462C74.6263 57.1268 74.2084 57.5348 74.2084 58.0424V60.5206H77.9597C78.5509 60.5206 78.9893 59.8538 78.9994 59.8438L79.5295 59.9931V62.8793L78.9892 63.0087C78.9892 62.9987 78.5917 62.3219 77.9597 62.3219H74.2084V65.9148C74.2084 66.7508 74.9219 67.1787 74.9321 67.1887L74.769 67.7062H71.7313Z" fill="#841700"/>
<path d="M82.0067 58.7789C82.0067 58.7789 80.6815 56.8382 80.0596 56.8382H75.136C74.4633 56.8382 73.9128 57.3756 73.9128 58.0325V60.7992H77.9495C78.7141 60.7992 79.2339 59.9831 79.2339 59.9831V62.8693C79.2339 62.8693 78.7752 62.0333 77.9495 62.0333H73.9128V65.9048C73.9128 66.91 74.7691 67.4176 74.7691 67.4176H71.7313C71.7313 67.4176 72.5876 66.8802 72.5876 65.9048V57.1069C72.5876 56.2311 71.7313 55.5941 71.7313 55.5941H81.2727L82.0067 58.7789Z" fill="#841700"/>
<path d="M89.8966 67.8853C86.2779 67.8853 83.2197 64.9693 83.2197 61.5158C83.2197 58.0623 86.2779 55.1463 89.8966 55.1463C93.5154 55.1463 96.5736 58.0623 96.5736 61.5158C96.5736 64.9693 93.5154 67.8853 89.8966 67.8853ZM89.8966 56.9476C87.2667 56.9476 85.126 58.9978 85.126 61.5158C85.126 63.9939 87.3074 66.0839 89.8966 66.0839C92.4859 66.0839 94.6673 63.9939 94.6673 61.5158C94.6673 58.9978 92.5266 56.9476 89.8966 56.9476Z" fill="#841700"/>
<path d="M89.8966 55.4349C93.3421 55.4349 96.2881 58.1618 96.2881 61.5158C96.2881 64.8797 93.3421 67.6067 89.8966 67.6067C86.4511 67.6067 83.5051 64.8797 83.5051 61.5158C83.5051 58.1519 86.4511 55.4349 89.8966 55.4349ZM84.8303 61.5158C84.8303 64.0537 87.0118 66.3726 89.8966 66.3726C92.7713 66.3726 94.9629 64.0537 94.9629 61.5158C94.9629 58.9381 92.7815 56.659 89.8966 56.659C87.022 56.659 84.8303 58.9381 84.8303 61.5158Z" fill="#841700"/>
<path d="M97.96 67.7062L97.8071 67.1787C97.8377 67.1588 98.5206 66.7508 98.5206 65.9048V57.2562C98.5206 56.3107 97.8275 55.8529 97.7969 55.833L97.9498 55.3155H105.83C107.919 55.3155 109.622 56.9775 109.622 59.0178C109.622 60.9883 108.327 62.5011 106.472 62.7897L108.215 64.9792C108.959 65.9247 109.917 66.492 110.774 66.492H111.059V67.7062H110.774C109.143 67.7062 107.45 66.9598 106.564 65.8351L104.199 62.8494H100.417V65.9148C100.417 66.7508 101.1 67.1688 101.13 67.1887L100.977 67.7162H97.96V67.7062ZM105.35 61.048C106.482 61.048 107.501 60.4011 107.664 59.5751C107.797 58.9282 107.654 58.3211 107.277 57.8633C106.88 57.3955 106.248 57.1168 105.544 57.1168H101.385C100.875 57.1168 100.447 57.5249 100.447 58.0325V61.048H105.35Z" fill="#841700"/>
<path d="M110.784 66.7806V67.4275C109.346 67.4275 107.685 66.7806 106.808 65.666L104.351 62.5708H100.141V65.9148C100.141 66.9399 100.998 67.4275 100.998 67.4275H97.96C97.96 67.4275 98.8162 66.9299 98.8162 65.9148V57.2661C98.8162 56.1415 97.96 55.6041 97.96 55.6041H105.84C107.777 55.6041 109.346 57.1368 109.346 59.0277C109.346 61.1376 107.828 62.521 105.942 62.5608L108.001 65.1584C108.663 65.9944 109.693 66.7806 110.784 66.7806ZM100.152 58.0325V61.3267H105.35C106.543 61.3267 107.746 60.64 107.95 59.6249C108.266 58.0325 107.114 56.8382 105.534 56.8382H101.375C100.702 56.8382 100.152 57.3756 100.152 58.0325Z" fill="#841700"/>
<path d="M126.829 67.1787C126.859 67.1588 127.542 66.7806 127.542 65.9148V57.1168H127.165L122.833 67.6962L119.296 67.7062L114.963 57.1168H114.586V65.9048C114.586 66.7309 115.279 67.1588 115.31 67.1787L115.157 67.6962L112.119 67.7062L111.956 67.1887C111.966 67.1887 112.69 66.6711 112.69 65.9048V55.3254L116.268 55.3155L120.6 65.9048H121.548L125.881 55.3254L129.459 55.3155V65.9048C129.459 66.8304 130.142 67.1588 130.152 67.1588L130.03 67.6962L126.992 67.7062L126.829 67.1787Z" fill="#841700"/>
<path d="M127.828 65.9148V56.8382H126.961L122.629 67.4275H119.489L115.157 56.8382H114.29V65.9048C114.29 66.91 115.147 67.4176 115.147 67.4176L112.109 67.4275C112.109 67.4275 112.965 66.8403 112.965 65.9148V55.614L116.054 55.6041L120.386 66.1934H121.722L126.054 55.614L129.143 55.6041V65.9148C129.143 67.0294 129.999 67.4275 129.999 67.4275L126.961 67.4375C126.972 67.4275 127.828 66.9697 127.828 65.9148Z" fill="#841700"/>
<path d="M161.834 62.7598C161.834 62.7598 160.917 61.3864 160.468 61.3864H158.419C158.052 61.5755 157.818 61.7447 157.818 62.1527V67.7958C157.818 68.5223 158.429 68.8706 158.429 68.8706H156.279C156.279 68.8706 156.88 68.5621 156.88 67.7958V62.1428C156.88 61.7347 156.646 61.5755 156.279 61.3864H154.23C153.791 61.3864 152.864 62.7598 152.864 62.7598L153.251 60.5604V60.5206H161.447V60.5604L161.834 62.7598Z" fill="#841700"/>
<path d="M167.91 67.8057V65.5266C167.91 64.3124 167.634 63.2873 166.401 63.2873C164.903 63.2873 163.832 64.4816 163.832 65.6062V67.7958C163.832 68.5123 164.444 68.8706 164.444 68.8706H162.283C162.283 68.8706 162.894 68.5223 162.894 67.7958V60.8291C162.894 60.1125 162.283 59.7542 162.283 59.7542H163.842V64.1432C164.362 63.1181 165.249 62.4115 166.411 62.4115C168.083 62.4115 168.848 63.8546 168.868 65.6361V67.7958C168.868 68.5123 169.469 68.8706 169.469 68.8706H167.318C167.298 68.8706 167.91 68.5223 167.91 67.8057Z" fill="#841700"/>
<path d="M177.828 68.8706H176.167L176.065 67.7062C175.433 68.4825 174.556 68.99 173.455 68.99C171.946 68.99 170.05 68.373 170.05 66.7906C170.05 65.7157 171.07 65.2479 172.283 65.2479C173.771 65.2479 175.545 65.646 176.065 65.7854V65.6958C176.065 64.183 175.056 63.2873 173.455 63.2873C171.957 63.2873 171.498 63.8546 170.988 64.7503L170.591 64.5015C170.591 64.5015 170.958 62.4214 173.455 62.4214C174.505 62.4214 175.259 62.6802 175.881 63.2176C176.503 63.7551 177.003 64.5712 177.003 65.7057V67.8057C177.013 68.5223 177.828 68.8706 177.828 68.8706ZM176.004 66.2432C175.045 66.064 170.998 65.3275 170.998 66.9C170.998 67.736 172.14 68.1142 173.465 68.1142C174.903 68.1142 175.83 67.1289 176.004 66.2432Z" fill="#841700"/>
<path d="M184.954 68.8706H183.404V67.2683C182.884 68.2934 181.997 69 180.846 69C179.062 69 178.399 67.5569 178.389 65.7754V63.6157C178.389 62.8992 177.777 62.5409 177.777 62.5409H179.918C179.918 62.5409 179.316 62.8892 179.316 63.6157V65.8948C179.316 67.0991 179.694 68.1341 180.835 68.1341C182.436 68.1341 183.404 67.0593 183.404 65.8152V63.6257C183.404 62.9091 182.803 62.5508 182.803 62.5508H184.943C184.943 62.5508 184.342 62.8992 184.342 63.6257V67.8157C184.352 68.5123 184.954 68.8706 184.954 68.8706Z" fill="#841700"/>
<path d="M194.872 67.8057V65.5266C194.872 64.3124 194.597 63.2873 193.364 63.2873C191.865 63.2873 190.795 64.4816 190.795 65.6062V67.7958C190.795 68.5123 191.406 68.8706 191.406 68.8706H189.245C189.245 68.8706 189.857 68.5223 189.857 67.7958V60.8291C189.857 60.1125 189.245 59.7542 189.245 59.7542H190.805V64.1432C191.325 63.1181 192.212 62.4115 193.374 62.4115C195.046 62.4115 195.81 63.8546 195.83 65.6361V67.7958C195.83 68.5123 196.432 68.8706 196.432 68.8706H194.281C194.261 68.8706 194.872 68.5223 194.872 67.8057Z" fill="#841700"/>
<path d="M197.584 67.8057V63.6157C197.584 62.8992 196.972 62.5409 196.972 62.5409H198.532L198.522 67.7957C198.522 68.5123 199.123 68.8706 199.123 68.8706H196.972C196.972 68.8706 197.584 68.5223 197.584 67.8057ZM197.584 61.1674C197.584 60.7395 197.686 60.3912 198.043 60.3912C198.399 60.3912 198.522 60.7395 198.522 61.1674C198.522 61.5954 198.399 61.9437 198.043 61.9437C197.686 61.9437 197.584 61.5954 197.584 61.1674Z" fill="#841700"/>
<path d="M206.931 66.8204C206.931 66.8204 206.218 69 203.659 69C200.418 69 199.837 66.6612 199.837 65.7257C199.837 64.392 200.621 62.4414 203.374 62.4414C206.167 62.4414 206.779 63.9044 206.779 64.5612C206.779 65.228 206.248 66.1337 204.556 66.1337C203.078 66.1337 201.264 65.7058 200.774 65.5963C200.774 66.7707 201.661 68.1341 203.639 68.1341C205.841 68.1341 206.534 66.5915 206.534 66.5915L206.931 66.8204ZM200.836 65.1186C201.498 65.2479 205.841 66.1138 205.841 64.5115C205.841 64.0138 205.066 63.2973 203.364 63.2973C201.977 63.2973 201.029 64.2328 200.836 65.1186Z" fill="#841700"/>
<path d="M214.658 68.8706H213.109V67.2683C212.589 68.2934 211.702 69 210.55 69C208.766 69 208.104 67.5569 208.094 65.7754V63.6157C208.094 62.8992 207.482 62.5409 207.482 62.5409H209.623C209.623 62.5409 209.021 62.8892 209.021 63.6157V65.8948C209.021 67.0991 209.398 68.1341 210.54 68.1341C212.14 68.1341 213.109 67.0593 213.109 65.8152V63.6257C213.109 62.9091 212.507 62.5508 212.507 62.5508H214.648C214.648 62.5508 214.047 62.8992 214.047 63.6257V67.8157C214.047 68.5123 214.658 68.8706 214.658 68.8706Z" fill="#841700"/>
<path d="M226.075 65.7057C226.075 67.527 224.597 68.99 222.915 68.99C221.753 68.99 220.846 68.2834 220.336 67.2484C220.336 67.5967 220.336 67.7958 220.336 67.7958C220.336 68.5123 220.938 68.8706 220.938 68.8706H219.398V60.8291C219.398 60.1125 218.797 59.7542 218.797 59.7542H220.336C220.336 59.7542 220.336 62.0234 220.336 64.1532C220.846 63.1181 221.753 62.4115 222.915 62.4115C224.597 62.4215 226.075 63.8944 226.075 65.7057ZM225.138 65.7057C225.138 64.4418 224.088 63.2973 222.915 63.2973C221.182 63.2973 220.336 64.3821 220.336 65.7057C220.336 66.9398 221.182 68.1142 222.915 68.1142C224.037 68.1142 225.138 67.0095 225.138 65.7057Z" fill="#841700"/>
<path d="M234.648 68.8706H232.987L232.885 67.7062C232.253 68.4825 231.376 68.99 230.275 68.99C228.767 68.99 226.87 68.373 226.87 66.7906C226.87 65.7157 227.89 65.2479 229.103 65.2479C230.591 65.2479 232.365 65.646 232.885 65.7854V65.6958C232.885 64.183 231.876 63.2873 230.275 63.2873C228.777 63.2873 228.318 63.8546 227.808 64.7503L227.411 64.5015C227.411 64.5015 227.778 62.4214 230.275 62.4214C231.325 62.4214 232.079 62.6802 232.701 63.2176C233.323 63.7551 233.823 64.5712 233.823 65.7057V67.8057C233.823 68.5223 234.648 68.8706 234.648 68.8706ZM232.824 66.2432C231.865 66.064 227.818 65.3275 227.818 66.9C227.818 67.736 228.96 68.1142 230.285 68.1142C231.723 68.1142 232.65 67.1289 232.824 66.2432Z" fill="#841700"/>
<path d="M240.775 67.8057V65.5266C240.775 64.3224 240.398 63.2873 239.256 63.2873C237.655 63.2873 236.687 64.3622 236.687 65.6062V67.7958C236.687 68.5123 237.289 68.8706 237.289 68.8706H235.148C235.148 68.8706 235.759 68.5223 235.759 67.7958V63.6058C235.759 62.8892 235.148 62.5309 235.148 62.5309H236.697V64.1333C237.217 63.1082 238.104 62.4016 239.256 62.4016C241.04 62.4016 241.702 63.8447 241.713 65.6261V67.7858C241.713 68.5024 242.324 68.8607 242.324 68.8607H240.184C240.173 68.8706 240.775 68.5223 240.775 67.8057Z" fill="#841700"/>
<path d="M248.114 63.2973L248.104 67.8057C248.104 68.5223 248.706 68.8806 248.706 68.8806H247.177V63.2973H246.575V62.5508H247.177V60.5603H248.114V62.5508H250.286L249.684 63.2973H248.114Z" fill="#841700"/>
<path d="M256.188 67.8057V65.5266C256.188 64.3124 255.913 63.2873 254.679 63.2873C253.181 63.2873 252.11 64.4816 252.11 65.6062V67.7958C252.11 68.5123 252.722 68.8706 252.722 68.8706H250.561C250.561 68.8706 251.172 68.5223 251.172 67.7958V60.8291C251.172 60.1125 250.561 59.7542 250.561 59.7542H252.12V64.1432C252.64 63.1181 253.527 62.4115 254.689 62.4115C256.361 62.4115 257.126 63.8546 257.146 65.6361V67.7958C257.146 68.5123 257.747 68.8706 257.747 68.8706H255.597C255.586 68.8706 256.188 68.5223 256.188 67.8057Z" fill="#841700"/>
<path d="M266.106 68.8706H264.445L264.343 67.7062C263.711 68.4825 262.834 68.99 261.733 68.99C260.225 68.99 258.328 68.373 258.328 66.7906C258.328 65.7157 259.348 65.2479 260.561 65.2479C262.049 65.2479 263.823 65.646 264.343 65.7854V65.6958C264.343 64.183 263.334 63.2873 261.733 63.2873C260.235 63.2873 259.776 63.8546 259.266 64.7503L258.869 64.5015C258.869 64.5015 259.236 62.4214 261.733 62.4214C262.783 62.4214 263.538 62.6802 264.159 63.2176C264.781 63.7551 265.281 64.5712 265.281 65.7057V67.8057C265.291 68.5223 266.106 68.8706 266.106 68.8706ZM264.282 66.2432C263.323 66.064 259.277 65.3275 259.277 66.9C259.277 67.736 260.418 68.1142 261.743 68.1142C263.181 68.1142 264.108 67.1289 264.282 66.2432Z" fill="#841700"/>
<path d="M272.243 67.8057V65.5266C272.243 64.3224 271.866 63.2873 270.724 63.2873C269.124 63.2873 268.155 64.3622 268.155 65.6062V67.7958C268.155 68.5123 268.757 68.8706 268.757 68.8706H266.616C266.616 68.8706 267.228 68.5223 267.228 67.7958V63.6058C267.228 62.8892 266.616 62.5309 266.616 62.5309H268.166V64.1333C268.685 63.1082 269.572 62.4016 270.724 62.4016C272.508 62.4016 273.171 63.8447 273.181 65.6261V67.7858C273.181 68.5024 273.792 68.8607 273.792 68.8607H271.652C271.631 68.8706 272.243 68.5223 272.243 67.8057Z" fill="#841700"/>
<path d="M174.26 60.003L175.31 61.7049H174.495L173.883 60.5803H173.842L173.221 61.7049H172.436L173.465 60.003H174.26ZM176.819 59.0177L175.596 60.5902H174.974L175.82 59.0177H176.819Z" fill="#841700"/>
<path d="M204.169 59.8438L205.219 61.5457H204.414L203.792 60.421H203.771L203.15 61.5457H202.365L203.394 59.8438H204.169ZM205.046 60.4011C205.239 59.9035 205.667 59.794 205.667 59.4258C205.667 59.1969 205.484 59.0277 205.249 59.0277C205.005 59.0277 204.811 59.2566 204.679 59.4556L204.271 59.2168C204.495 58.8087 204.842 58.4505 205.443 58.4505C205.994 58.4505 206.412 58.8286 206.412 59.2964C206.412 59.8836 205.902 59.9931 205.576 60.5305L205.046 60.4011Z" fill="#841700"/>
<path d="M231.101 61.8542C231.244 61.3267 231.794 61.1774 231.794 60.7295C231.794 60.4807 231.611 60.3215 231.376 60.3215C231.121 60.3215 230.928 60.5205 230.785 60.7395L230.367 60.5006C230.571 60.0727 230.958 59.7045 231.549 59.7045C232.141 59.7045 232.589 60.0727 232.589 60.6002C232.589 61.267 231.937 61.4561 231.662 61.9935L231.101 61.8542Z" fill="#841700"/>
<path d="M262.447 60.003L263.619 61.7049H262.804L262.09 60.5703H262.07L261.356 61.7049H260.551L261.703 60.003H262.447Z" fill="#841700"/>
</g>
<defs>
<clipPath id="clip0_263_354">
<rect width="313" height="69" fill="white" transform="translate(0.354492)"/>
</clipPath>
</defs>
</svg>
