<svg width="41" height="41" viewBox="0 0 41 41" fill="none" xmlns="http://www.w3.org/2000/svg">
<mask id="mask0_263_989" style="mask-type:alpha" maskUnits="userSpaceOnUse" x="0" y="0" width="41" height="41">
<rect x="0.0258789" y="0.333313" width="40" height="40" fill="#D9D9D9"/>
</mask>
<g mask="url(#mask0_263_989)">
<path d="M28.3594 37C26.9705 37 25.7899 36.5139 24.8177 35.5416C23.8455 34.5694 23.3594 33.3889 23.3594 32C23.3594 31.8333 23.401 31.4444 23.4844 30.8333L11.776 24C11.3316 24.4166 10.8177 24.743 10.2344 24.9791C9.65104 25.2153 9.02604 25.3333 8.35938 25.3333C6.97049 25.3333 5.78993 24.8472 4.81771 23.875C3.84549 22.9028 3.35938 21.7222 3.35938 20.3333C3.35938 18.9444 3.84549 17.7639 4.81771 16.7916C5.78993 15.8194 6.97049 15.3333 8.35938 15.3333C9.02604 15.3333 9.65104 15.4514 10.2344 15.6875C10.8177 15.9236 11.3316 16.25 11.776 16.6666L23.4844 9.83331C23.4288 9.63886 23.3941 9.45136 23.3802 9.27081C23.3663 9.09025 23.3594 8.88886 23.3594 8.66664C23.3594 7.27775 23.8455 6.0972 24.8177 5.12497C25.7899 4.15275 26.9705 3.66664 28.3594 3.66664C29.7483 3.66664 30.9288 4.15275 31.901 5.12497C32.8733 6.0972 33.3594 7.27775 33.3594 8.66664C33.3594 10.0555 32.8733 11.2361 31.901 12.2083C30.9288 13.1805 29.7483 13.6666 28.3594 13.6666C27.6927 13.6666 27.0677 13.5486 26.4844 13.3125C25.901 13.0764 25.3872 12.75 24.9427 12.3333L13.2344 19.1666C13.2899 19.3611 13.3247 19.5486 13.3385 19.7291C13.3524 19.9097 13.3594 20.1111 13.3594 20.3333C13.3594 20.5555 13.3524 20.7569 13.3385 20.9375C13.3247 21.118 13.2899 21.3055 13.2344 21.5L24.9427 28.3333C25.3872 27.9166 25.901 27.5903 26.4844 27.3541C27.0677 27.118 27.6927 27 28.3594 27C29.7483 27 30.9288 27.4861 31.901 28.4583C32.8733 29.4305 33.3594 30.6111 33.3594 32C33.3594 33.3889 32.8733 34.5694 31.901 35.5416C30.9288 36.5139 29.7483 37 28.3594 37Z" fill="url(#paint0_linear_263_989)"/>
</g>
<defs>
<linearGradient id="paint0_linear_263_989" x1="18.3594" y1="3.66664" x2="18.3594" y2="37" gradientUnits="userSpaceOnUse">
<stop stop-color="#1673FF"/>
<stop offset="1" stop-color="#0D4599"/>
</linearGradient>
</defs>
</svg>
